<svg xmlns="http://www.w3.org/2000/svg" width="1024" height="1024" viewBox="0 0 1024 1024" version="1.1">
	<path d="M 480 0.593 C 437.370 4.137, 416.731 7.434, 382.542 16.161 C 349.021 24.717, 319.799 35.615, 286.500 51.979 C 232.257 78.636, 189.249 109.654, 146.911 152.653 C 106.201 193.999, 77.667 234.228, 51.979 286.500 C 24.272 342.881, 8.649 397.850, 1.817 463 C 0.053 479.817, 0.053 544.183, 1.817 561 C 8.649 626.150, 24.272 681.119, 51.979 737.500 C 77.667 789.772, 106.201 830.001, 146.911 871.347 C 189.249 914.346, 232.257 945.364, 286.500 972.021 C 342.881 999.728, 397.850 1015.351, 463 1022.183 C 479.817 1023.947, 544.183 1023.947, 561 1022.183 C 626.150 1015.351, 681.119 999.728, 737.500 972.021 C 791.743 945.364, 834.751 914.346, 877.089 871.347 C 917.799 830.001, 946.333 789.772, 972.021 737.500 C 992.267 696.301, 1005.482 657.501, 1014.424 613 C 1018.923 590.610, 1022.967 559.123, 1022.989 546.309 C 1022.995 542.904, 1023.450 539.840, 1024 539.500 C 1024.628 539.112, 1025 528.470, 1025 510.882 C 1025 492.470, 1024.658 483.094, 1024 483.500 C 1023.374 483.887, 1022.996 481.758, 1022.989 477.809 C 1022.967 464.884, 1018.941 433.479, 1014.424 411 C 1005.482 366.499, 992.267 327.699, 972.021 286.500 C 946.333 234.228, 917.799 193.999, 877.089 152.653 C 834.751 109.654, 791.743 78.636, 737.500 51.979 C 682.341 24.872, 629.413 9.563, 566 2.375 C 553.297 0.934, 491.332 -0.349, 480 0.593 M 490.500 51.611 C 386.029 58.321, 295.153 94.011, 215.814 159.488 C 162.514 203.476, 114.397 268.800, 87.638 333.500 C 63.148 392.716, 51.644 449.765, 51.644 512 C 51.644 541.645, 52.968 558.109, 57.596 586 C 73.503 681.860, 118.352 769.376, 186.488 837.512 C 254.624 905.648, 342.140 950.497, 438 966.404 C 465.891 971.032, 482.355 972.356, 512 972.356 C 541.645 972.356, 558.109 971.032, 586 966.404 C 681.860 950.497, 769.376 905.648, 837.512 837.512 C 905.648 769.376, 950.497 681.860, 966.404 586 C 971.032 558.109, 972.356 541.645, 972.356 512 C 972.356 482.355, 971.032 465.891, 966.404 438 C 950.497 342.140, 905.648 254.624, 837.512 186.488 C 752.983 101.960, 638.829 53.617, 519 51.604 C 506.625 51.396, 493.800 51.400, 490.500 51.611 M 251 259.596 C 247.975 259.796, 237.400 260.445, 227.500 261.038 C 201.873 262.574, 168.990 267.076, 157.750 270.588 C 156.090 271.107, 156 283.387, 156 510.067 L 156 749 190 749 L 224 749 224 654 L 224 559 271.250 558.986 C 297.238 558.979, 319.424 558.724, 320.554 558.421 C 322.255 557.964, 324.676 560.499, 334.654 573.185 C 375.887 625.607, 411.770 679.713, 441.500 734.293 L 449.500 748.980 486.792 748.990 L 524.083 749 513.488 728.069 C 488.361 678.432, 447.665 615.510, 405.235 560.695 C 398.933 552.553, 393.939 545.777, 394.138 545.638 C 394.337 545.499, 397.875 544.105, 402 542.540 C 453.722 522.918, 484.825 486.190, 492.648 435.500 C 494.804 421.522, 493.969 390.383, 491.075 376.884 C 483.377 340.976, 465.475 314.052, 436.472 294.760 C 409.978 277.137, 379.030 267.084, 334 261.473 C 322.098 259.990, 264.664 258.691, 251 259.596 M 662 260.597 C 616.737 263.118, 585.265 266.414, 567.184 270.526 L 560 272.160 560 507 L 560 741.840 566.794 743.385 C 581.513 746.733, 603.420 749.399, 639 752.172 C 663.023 754.045, 723.850 753.749, 744.701 751.658 C 809.381 745.173, 850.694 729.901, 878.620 702.155 C 901.573 679.351, 912.434 652.047, 913.687 614 C 914.495 589.463, 912.071 573.146, 905.108 556.261 C 894.262 529.960, 866.855 506.836, 832 494.579 C 827.875 493.129, 823.836 491.705, 823.025 491.416 C 822.141 491.101, 824.944 489.207, 830.025 486.687 C 842.277 480.611, 849.343 475.632, 859.337 466.034 C 881.243 444.996, 889.986 422.396, 889.996 386.785 C 890.005 351.971, 880.224 327.794, 857.263 305.882 C 831.421 281.220, 793.924 267.761, 735 261.997 C 724.125 260.933, 673.427 259.961, 662 260.597 M 644 318.058 C 637.125 318.544, 630.487 319.188, 629.250 319.490 L 627 320.038 627 394.611 L 627 469.184 678.250 468.738 C 723.992 468.339, 730.897 468.068, 742.500 466.208 C 772.184 461.450, 790.730 452.953, 804.398 437.850 C 817.227 423.673, 823.100 402.846, 820.005 382.504 C 814.697 347.615, 787.735 327.840, 734 319.423 C 721.627 317.486, 664.391 316.617, 644 318.058 M 242 320.053 C 234.575 320.444, 227.488 320.817, 226.250 320.882 L 224 321 224 412.126 L 224 503.253 267.750 502.716 C 298.328 502.341, 315.865 501.689, 326 500.551 C 375.101 495.034, 401.257 481.419, 414.424 454.523 C 418.897 445.385, 420.729 438.138, 422.201 423.751 C 424.438 401.889, 420.557 380.692, 411.434 364.951 C 406.191 355.904, 392.437 342.596, 382.603 337.055 C 366.594 328.036, 343.819 322.244, 315.605 320.018 C 301.540 318.908, 263.417 318.926, 242 320.053 M 0.441 512 C 0.441 527.675, 0.579 534.087, 0.748 526.250 C 0.917 518.412, 0.917 505.587, 0.748 497.750 C 0.579 489.912, 0.441 496.325, 0.441 512 M 627 608.857 C 627 688.957, 627.101 693.895, 628.750 694.374 C 633.939 695.882, 675.113 697.220, 700.824 696.716 C 749.635 695.759, 779.145 690.418, 802 678.403 C 823.132 667.294, 838.306 648.434, 842.552 628 C 845.847 612.145, 844.054 588.477, 838.528 574.877 C 829.492 552.639, 806.423 536.183, 774.838 529.444 C 754.246 525.050, 748.512 524.714, 686.750 524.274 L 627 523.848 627 608.857" stroke="none" fill="black" fill-rule="evenodd"/>
</svg>