<svg xmlns="http://www.w3.org/2000/svg" width="1024" height="1024" viewBox="0 0 1024 1024" version="1.1">
	<path d="M 480 0.593 C 437.370 4.137, 416.731 7.434, 382.542 16.161 C 349.021 24.717, 319.799 35.615, 286.500 51.979 C 232.257 78.636, 189.249 109.654, 146.911 152.653 C 106.201 193.999, 77.667 234.228, 51.979 286.500 C 24.272 342.881, 8.649 397.850, 1.817 463 C 0.053 479.817, 0.053 544.183, 1.817 561 C 8.649 626.150, 24.272 681.119, 51.979 737.500 C 77.667 789.772, 106.201 830.001, 146.911 871.347 C 189.249 914.346, 232.257 945.364, 286.500 972.021 C 342.881 999.728, 397.850 1015.351, 463 1022.183 C 479.817 1023.947, 544.183 1023.947, 561 1022.183 C 626.150 1015.351, 681.119 999.728, 737.500 972.021 C 791.743 945.364, 834.751 914.346, 877.089 871.347 C 917.799 830.001, 946.333 789.772, 972.021 737.500 C 992.267 696.301, 1005.482 657.501, 1014.424 613 C 1018.923 590.610, 1022.967 559.123, 1022.989 546.309 C 1022.995 542.904, 1023.450 539.840, 1024 539.500 C 1024.628 539.112, 1025 528.470, 1025 510.882 C 1025 492.470, 1024.658 483.094, 1024 483.500 C 1023.374 483.887, 1022.996 481.758, 1022.989 477.809 C 1022.967 464.884, 1018.941 433.479, 1014.424 411 C 1005.482 366.499, 992.267 327.699, 972.021 286.500 C 946.333 234.228, 917.799 193.999, 877.089 152.653 C 834.751 109.654, 791.743 78.636, 737.500 51.979 C 682.341 24.872, 629.413 9.563, 566 2.375 C 553.297 0.934, 491.332 -0.349, 480 0.593 M 490.500 51.611 C 386.029 58.321, 295.153 94.011, 215.814 159.488 C 162.514 203.476, 114.397 268.800, 87.638 333.500 C 63.148 392.716, 51.644 449.765, 51.644 512 C 51.644 541.645, 52.968 558.109, 57.596 586 C 73.503 681.860, 118.352 769.376, 186.488 837.512 C 254.624 905.648, 342.140 950.497, 438 966.404 C 465.891 971.032, 482.355 972.356, 512 972.356 C 541.645 972.356, 558.109 971.032, 586 966.404 C 681.860 950.497, 769.376 905.648, 837.512 837.512 C 905.648 769.376, 950.497 681.860, 966.404 586 C 971.032 558.109, 972.356 541.645, 972.356 512 C 972.356 482.355, 971.032 465.891, 966.404 438 C 950.497 342.140, 905.648 254.624, 837.512 186.488 C 752.983 101.960, 638.829 53.617, 519 51.604 C 506.625 51.396, 493.800 51.400, 490.500 51.611 M 256 259.662 C 213.575 261.468, 186.746 264.346, 162.750 269.664 L 156 271.160 156 510.080 L 156 749 190 749 L 224 749 224 654 L 224 559 268.860 559 C 293.534 559, 315.735 558.724, 318.196 558.387 L 322.671 557.773 333.685 571.647 C 372.640 620.718, 414.462 683.730, 441.590 734.223 L 449.500 748.947 486.250 748.973 C 509.649 748.990, 523 748.643, 523 748.018 C 523 745.560, 501.129 704.401, 489.584 685.132 C 459.846 635.501, 434.354 598.199, 400.654 555 C 397.007 550.325, 394.018 546.240, 394.011 545.922 C 394.005 545.604, 397.938 543.856, 402.750 542.038 C 451.327 523.685, 482.101 488.841, 491.686 441.339 C 494.161 429.071, 494.151 394.554, 491.669 381.264 C 482.425 331.783, 454.830 298.739, 406.307 279.046 C 368.056 263.522, 317.745 257.034, 256 259.662 M 666.500 260.593 C 620.118 262.938, 585.490 266.426, 566.750 270.642 L 560 272.160 560 507 L 560 741.840 566.750 743.358 C 581.187 746.606, 610.790 750.073, 640 751.937 C 734.364 757.959, 806.392 748.179, 850.270 723.385 C 877.975 707.730, 897.677 684.300, 906.934 656 C 912.018 640.457, 913.372 630.669, 913.438 609 C 913.504 587.021, 912.587 579.303, 908.267 565.500 C 902.901 548.352, 893.197 533.496, 880.010 522.238 C 864.235 508.771, 849.820 500.949, 823.500 491.573 C 821.893 491, 823.464 489.843, 831.501 485.680 C 844.223 479.090, 849.561 475.361, 858.710 466.670 C 872.849 453.240, 881.594 438.498, 886.691 419.500 C 889.217 410.084, 889.374 408.215, 889.374 387.500 C 889.374 366.888, 889.208 364.885, 886.746 355.758 C 883.416 343.408, 879.997 335.615, 873.397 325.335 C 853.399 294.182, 816.281 274.125, 762.781 265.562 C 739.592 261.851, 691.114 259.349, 666.500 260.593 M 641.500 318.109 C 634.900 318.618, 628.938 319.238, 628.250 319.486 C 627.265 319.842, 627 335.751, 627 394.469 L 627 469 671.750 468.999 C 729.358 468.998, 746.531 467.460, 768 460.376 C 783.010 455.424, 791.897 450.100, 802.015 440 C 814.770 427.268, 819.425 416.491, 820.589 397 C 823.125 354.543, 794.968 329.022, 735 319.426 C 722.585 317.439, 661.353 316.577, 641.500 318.109 M 242.500 319.620 C 239.200 319.812, 233.688 320.236, 230.250 320.564 L 224 321.159 224 412.198 L 224 503.237 269.250 502.692 C 316.247 502.125, 330.792 501.121, 350.606 497.077 C 389.252 489.189, 412.233 470.132, 420.040 439.500 C 422.688 429.112, 423.671 408.488, 422.083 396.635 C 417.012 358.787, 391.299 333.448, 348.838 324.455 C 329.550 320.370, 321.972 319.785, 285 319.527 C 264.925 319.386, 245.800 319.428, 242.500 319.620 M 0.441 512 C 0.441 527.675, 0.579 534.087, 0.748 526.250 C 0.917 518.412, 0.917 505.587, 0.748 497.750 C 0.579 489.912, 0.441 496.325, 0.441 512 M 627.244 609.250 L 627.500 694.500 636 695.395 C 640.675 695.887, 663.625 696.329, 687 696.377 C 731.012 696.468, 743.041 695.694, 763.570 691.454 C 804.839 682.929, 830.956 664.027, 840.421 635.831 C 847.557 614.572, 845.405 586.427, 835.236 568 C 831.311 560.889, 821.888 550.425, 815.324 545.891 C 803.524 537.739, 786.459 531.335, 767.692 528.017 C 748.212 524.573, 735.835 524.002, 680.744 524.001 L 626.989 524 627.244 609.250" stroke="none" fill="black" fill-rule="evenodd"/>
</svg>